<?xml version="1.0" encoding="UTF-8"?>
<svg xmlns="http://www.w3.org/2000/svg" viewBox="0 0 1024 1024" width="1024" height="1024" role="img" aria-label="Ostler">
  <path d="M 924.000 512.000 L 923.997 565.709 L 923.988 582.869 L 923.972 595.347 L 923.950 605.510 L 923.922 614.237 L 923.888 621.969 L 923.848 628.959 L 923.801 635.372 L 923.749 641.318 L 923.690 646.878 L 923.625 652.112 L 923.553 657.066 L 923.475 661.776 L 923.392 666.272 L 923.302 670.577 L 923.205 674.711 L 923.103 678.692 L 922.994 682.532 L 922.879 686.244 L 922.758 689.838 L 922.630 693.324 L 922.497 696.710 L 922.357 700.002 L 922.210 703.208 L 922.058 706.332 L 921.899 709.379 L 921.734 712.355 L 921.563 715.262 L 921.385 718.106 L 921.202 720.889 L 921.011 723.614 L 920.815 726.285 L 920.612 728.903 L 920.403 731.472 L 920.188 733.993 L 919.966 736.468 L 919.738 738.900 L 919.504 741.290 L 919.263 743.640 L 919.016 745.951 L 918.763 748.225 L 918.503 750.463 L 918.237 752.667 L 917.964 754.837 L 917.685 756.975 L 917.400 759.081 L 917.108 761.157 L 916.810 763.204 L 916.505 765.223 L 916.194 767.213 L 915.877 769.177 L 915.553 771.115 L 915.222 773.028 L 914.885 774.916 L 914.542 776.779 L 914.192 778.620 L 913.836 780.437 L 913.473 782.233 L 913.103 784.006 L 912.727 785.758 L 912.344 787.490 L 911.955 789.201 L 911.559 790.893 L 911.157 792.565 L 910.748 794.218 L 910.332 795.852 L 909.909 797.468 L 909.480 799.067 L 909.044 800.647 L 908.602 802.211 L 908.153 803.758 L 907.697 805.288 L 907.234 806.802 L 906.765 808.300 L 906.288 809.782 L 905.805 811.249 L 905.315 812.700 L 904.818 814.137 L 904.315 815.559 L 903.804 816.966 L 903.287 818.360 L 902.762 819.739 L 902.231 821.104 L 901.693 822.456 L 901.147 823.794 L 900.595 825.120 L 900.036 826.432 L 899.469 827.731 L 898.896 829.018 L 898.315 830.292 L 897.727 831.553 L 897.132 832.803 L 896.530 834.040 L 895.921 835.266 L 895.304 836.479 L 894.680 837.681 L 894.049 838.872 L 893.410 840.051 L 892.764 841.219 L 892.111 842.376 L 891.450 843.522 L 890.782 844.657 L 890.106 845.781 L 889.423 846.895 L 888.732 847.998 L 888.034 849.090 L 887.328 850.172 L 886.614 851.244 L 885.893 852.306 L 885.164 853.358 L 884.427 854.400 L 883.682 855.432 L 882.929 856.454 L 882.169 857.467 L 881.400 858.470 L 880.624 859.463 L 879.839 860.447 L 879.047 861.421 L 878.246 862.387 L 877.437 863.343 L 876.620 864.290 L 875.795 865.227 L 874.961 866.156 L 874.120 867.076 L 873.269 867.987 L 872.410 868.889 L 871.543 869.782 L 870.667 870.667 L 869.782 871.543 L 868.889 872.410 L 867.987 873.269 L 867.076 874.120 L 866.156 874.961 L 865.227 875.795 L 864.290 876.620 L 863.343 877.437 L 862.387 878.246 L 861.421 879.047 L 860.447 879.839 L 859.463 880.624 L 858.470 881.400 L 857.467 882.169 L 856.454 882.929 L 855.432 883.682 L 854.400 884.427 L 853.358 885.164 L 852.306 885.893 L 851.244 886.614 L 850.172 887.328 L 849.090 888.034 L 847.998 888.732 L 846.895 889.423 L 845.781 890.106 L 844.657 890.782 L 843.522 891.450 L 842.376 892.111 L 841.219 892.764 L 840.051 893.410 L 838.872 894.049 L 837.681 894.680 L 836.479 895.304 L 835.266 895.921 L 834.040 896.530 L 832.803 897.132 L 831.553 897.727 L 830.292 898.315 L 829.018 898.896 L 827.731 899.469 L 826.432 900.036 L 825.120 900.595 L 823.794 901.147 L 822.456 901.693 L 821.104 902.231 L 819.739 902.762 L 818.360 903.287 L 816.966 903.804 L 815.559 904.315 L 814.137 904.818 L 812.700 905.315 L 811.249 905.805 L 809.782 906.288 L 808.300 906.765 L 806.802 907.234 L 805.288 907.697 L 803.758 908.153 L 802.211 908.602 L 800.647 909.044 L 799.067 909.480 L 797.468 909.909 L 795.852 910.332 L 794.218 910.748 L 792.565 911.157 L 790.893 911.559 L 789.201 911.955 L 787.490 912.344 L 785.758 912.727 L 784.006 913.103 L 782.233 913.473 L 780.437 913.836 L 778.620 914.192 L 776.779 914.542 L 774.916 914.885 L 773.028 915.222 L 771.115 915.553 L 769.177 915.877 L 767.213 916.194 L 765.223 916.505 L 763.204 916.810 L 761.157 917.108 L 759.081 917.400 L 756.975 917.685 L 754.837 917.964 L 752.667 918.237 L 750.463 918.503 L 748.225 918.763 L 745.951 919.016 L 743.640 919.263 L 741.290 919.504 L 738.900 919.738 L 736.468 919.966 L 733.993 920.188 L 731.472 920.403 L 728.903 920.612 L 726.285 920.815 L 723.614 921.011 L 720.889 921.202 L 718.106 921.385 L 715.262 921.563 L 712.355 921.734 L 709.379 921.899 L 706.332 922.058 L 703.208 922.210 L 700.002 922.357 L 696.710 922.497 L 693.324 922.630 L 689.838 922.758 L 686.244 922.879 L 682.532 922.994 L 678.692 923.103 L 674.711 923.205 L 670.577 923.302 L 666.272 923.392 L 661.776 923.475 L 657.066 923.553 L 652.112 923.625 L 646.878 923.690 L 641.318 923.749 L 635.372 923.801 L 628.959 923.848 L 621.969 923.888 L 614.237 923.922 L 605.510 923.950 L 595.347 923.972 L 582.869 923.988 L 565.709 923.997 L 512.000 924.000 L 458.291 923.997 L 441.131 923.988 L 428.653 923.972 L 418.490 923.950 L 409.763 923.922 L 402.031 923.888 L 395.041 923.848 L 388.628 923.801 L 382.682 923.749 L 377.122 923.690 L 371.888 923.625 L 366.934 923.553 L 362.224 923.475 L 357.728 923.392 L 353.423 923.302 L 349.289 923.205 L 345.308 923.103 L 341.468 922.994 L 337.756 922.879 L 334.162 922.758 L 330.676 922.630 L 327.290 922.497 L 323.998 922.357 L 320.792 922.210 L 317.668 922.058 L 314.621 921.899 L 311.645 921.734 L 308.738 921.563 L 305.894 921.385 L 303.111 921.202 L 300.386 921.011 L 297.715 920.815 L 295.097 920.612 L 292.528 920.403 L 290.007 920.188 L 287.532 919.966 L 285.100 919.738 L 282.710 919.504 L 280.360 919.263 L 278.049 919.016 L 275.775 918.763 L 273.537 918.503 L 271.333 918.237 L 269.163 917.964 L 267.025 917.685 L 264.919 917.400 L 262.843 917.108 L 260.796 916.810 L 258.777 916.505 L 256.787 916.194 L 254.823 915.877 L 252.885 915.553 L 250.972 915.222 L 249.084 914.885 L 247.221 914.542 L 245.380 914.192 L 243.563 913.836 L 241.767 913.473 L 239.994 913.103 L 238.242 912.727 L 236.510 912.344 L 234.799 911.955 L 233.107 911.559 L 231.435 911.157 L 229.782 910.748 L 228.148 910.332 L 226.532 909.909 L 224.933 909.480 L 223.353 909.044 L 221.789 908.602 L 220.242 908.153 L 218.712 907.697 L 217.198 907.234 L 215.700 906.765 L 214.218 906.288 L 212.751 905.805 L 211.300 905.315 L 209.863 904.818 L 208.441 904.315 L 207.034 903.804 L 205.640 903.287 L 204.261 902.762 L 202.896 902.231 L 201.544 901.693 L 200.206 901.147 L 198.880 900.595 L 197.568 900.036 L 196.269 899.469 L 194.982 898.896 L 193.708 898.315 L 192.447 897.727 L 191.197 897.132 L 189.960 896.530 L 188.734 895.921 L 187.521 895.304 L 186.319 894.680 L 185.128 894.049 L 183.949 893.410 L 182.781 892.764 L 181.624 892.111 L 180.478 891.450 L 179.343 890.782 L 178.219 890.106 L 177.105 889.423 L 176.002 888.732 L 174.910 888.034 L 173.828 887.328 L 172.756 886.614 L 171.694 885.893 L 170.642 885.164 L 169.600 884.427 L 168.568 883.682 L 167.546 882.929 L 166.533 882.169 L 165.530 881.400 L 164.537 880.624 L 163.553 879.839 L 162.579 879.047 L 161.613 878.246 L 160.657 877.437 L 159.710 876.620 L 158.773 875.795 L 157.844 874.961 L 156.924 874.120 L 156.013 873.269 L 155.111 872.410 L 154.218 871.543 L 153.333 870.667 L 152.457 869.782 L 151.590 868.889 L 150.731 867.987 L 149.880 867.076 L 149.039 866.156 L 148.205 865.227 L 147.380 864.290 L 146.563 863.343 L 145.754 862.387 L 144.953 861.421 L 144.161 860.447 L 143.376 859.463 L 142.600 858.470 L 141.831 857.467 L 141.071 856.454 L 140.318 855.432 L 139.573 854.400 L 138.836 853.358 L 138.107 852.306 L 137.386 851.244 L 136.672 850.172 L 135.966 849.090 L 135.268 847.998 L 134.577 846.895 L 133.894 845.781 L 133.218 844.657 L 132.550 843.522 L 131.889 842.376 L 131.236 841.219 L 130.590 840.051 L 129.951 838.872 L 129.320 837.681 L 128.696 836.479 L 128.079 835.266 L 127.470 834.040 L 126.868 832.803 L 126.273 831.553 L 125.685 830.292 L 125.104 829.018 L 124.531 827.731 L 123.964 826.432 L 123.405 825.120 L 122.853 823.794 L 122.307 822.456 L 121.769 821.104 L 121.238 819.739 L 120.713 818.360 L 120.196 816.966 L 119.685 815.559 L 119.182 814.137 L 118.685 812.700 L 118.195 811.249 L 117.712 809.782 L 117.235 808.300 L 116.766 806.802 L 116.303 805.288 L 115.847 803.758 L 115.398 802.211 L 114.956 800.647 L 114.520 799.067 L 114.091 797.468 L 113.668 795.852 L 113.252 794.218 L 112.843 792.565 L 112.441 790.893 L 112.045 789.201 L 111.656 787.490 L 111.273 785.758 L 110.897 784.006 L 110.527 782.233 L 110.164 780.437 L 109.808 778.620 L 109.458 776.779 L 109.115 774.916 L 108.778 773.028 L 108.447 771.115 L 108.123 769.177 L 107.806 767.213 L 107.495 765.223 L 107.190 763.204 L 106.892 761.157 L 106.600 759.081 L 106.315 756.975 L 106.036 754.837 L 105.763 752.667 L 105.497 750.463 L 105.237 748.225 L 104.984 745.951 L 104.737 743.640 L 104.496 741.290 L 104.262 738.900 L 104.034 736.468 L 103.812 733.993 L 103.597 731.472 L 103.388 728.903 L 103.185 726.285 L 102.989 723.614 L 102.798 720.889 L 102.615 718.106 L 102.437 715.262 L 102.266 712.355 L 102.101 709.379 L 101.942 706.332 L 101.790 703.208 L 101.643 700.002 L 101.503 696.710 L 101.370 693.324 L 101.242 689.838 L 101.121 686.244 L 101.006 682.532 L 100.897 678.692 L 100.795 674.711 L 100.698 670.577 L 100.608 666.272 L 100.525 661.776 L 100.447 657.066 L 100.375 652.112 L 100.310 646.878 L 100.251 641.318 L 100.199 635.372 L 100.152 628.959 L 100.112 621.969 L 100.078 614.237 L 100.050 605.510 L 100.028 595.347 L 100.012 582.869 L 100.003 565.709 L 100.000 512.000 L 100.003 458.291 L 100.012 441.131 L 100.028 428.653 L 100.050 418.490 L 100.078 409.763 L 100.112 402.031 L 100.152 395.041 L 100.199 388.628 L 100.251 382.682 L 100.310 377.122 L 100.375 371.888 L 100.447 366.934 L 100.525 362.224 L 100.608 357.728 L 100.698 353.423 L 100.795 349.289 L 100.897 345.308 L 101.006 341.468 L 101.121 337.756 L 101.242 334.162 L 101.370 330.676 L 101.503 327.290 L 101.643 323.998 L 101.790 320.792 L 101.942 317.668 L 102.101 314.621 L 102.266 311.645 L 102.437 308.738 L 102.615 305.894 L 102.798 303.111 L 102.989 300.386 L 103.185 297.715 L 103.388 295.097 L 103.597 292.528 L 103.812 290.007 L 104.034 287.532 L 104.262 285.100 L 104.496 282.710 L 104.737 280.360 L 104.984 278.049 L 105.237 275.775 L 105.497 273.537 L 105.763 271.333 L 106.036 269.163 L 106.315 267.025 L 106.600 264.919 L 106.892 262.843 L 107.190 260.796 L 107.495 258.777 L 107.806 256.787 L 108.123 254.823 L 108.447 252.885 L 108.778 250.972 L 109.115 249.084 L 109.458 247.221 L 109.808 245.380 L 110.164 243.563 L 110.527 241.767 L 110.897 239.994 L 111.273 238.242 L 111.656 236.510 L 112.045 234.799 L 112.441 233.107 L 112.843 231.435 L 113.252 229.782 L 113.668 228.148 L 114.091 226.532 L 114.520 224.933 L 114.956 223.353 L 115.398 221.789 L 115.847 220.242 L 116.303 218.712 L 116.766 217.198 L 117.235 215.700 L 117.712 214.218 L 118.195 212.751 L 118.685 211.300 L 119.182 209.863 L 119.685 208.441 L 120.196 207.034 L 120.713 205.640 L 121.238 204.261 L 121.769 202.896 L 122.307 201.544 L 122.853 200.206 L 123.405 198.880 L 123.964 197.568 L 124.531 196.269 L 125.104 194.982 L 125.685 193.708 L 126.273 192.447 L 126.868 191.197 L 127.470 189.960 L 128.079 188.734 L 128.696 187.521 L 129.320 186.319 L 129.951 185.128 L 130.590 183.949 L 131.236 182.781 L 131.889 181.624 L 132.550 180.478 L 133.218 179.343 L 133.894 178.219 L 134.577 177.105 L 135.268 176.002 L 135.966 174.910 L 136.672 173.828 L 137.386 172.756 L 138.107 171.694 L 138.836 170.642 L 139.573 169.600 L 140.318 168.568 L 141.071 167.546 L 141.831 166.533 L 142.600 165.530 L 143.376 164.537 L 144.161 163.553 L 144.953 162.579 L 145.754 161.613 L 146.563 160.657 L 147.380 159.710 L 148.205 158.773 L 149.039 157.844 L 149.880 156.924 L 150.731 156.013 L 151.590 155.111 L 152.457 154.218 L 153.333 153.333 L 154.218 152.457 L 155.111 151.590 L 156.013 150.731 L 156.924 149.880 L 157.844 149.039 L 158.773 148.205 L 159.710 147.380 L 160.657 146.563 L 161.613 145.754 L 162.579 144.953 L 163.553 144.161 L 164.537 143.376 L 165.530 142.600 L 166.533 141.831 L 167.546 141.071 L 168.568 140.318 L 169.600 139.573 L 170.642 138.836 L 171.694 138.107 L 172.756 137.386 L 173.828 136.672 L 174.910 135.966 L 176.002 135.268 L 177.105 134.577 L 178.219 133.894 L 179.343 133.218 L 180.478 132.550 L 181.624 131.889 L 182.781 131.236 L 183.949 130.590 L 185.128 129.951 L 186.319 129.320 L 187.521 128.696 L 188.734 128.079 L 189.960 127.470 L 191.197 126.868 L 192.447 126.273 L 193.708 125.685 L 194.982 125.104 L 196.269 124.531 L 197.568 123.964 L 198.880 123.405 L 200.206 122.853 L 201.544 122.307 L 202.896 121.769 L 204.261 121.238 L 205.640 120.713 L 207.034 120.196 L 208.441 119.685 L 209.863 119.182 L 211.300 118.685 L 212.751 118.195 L 214.218 117.712 L 215.700 117.235 L 217.198 116.766 L 218.712 116.303 L 220.242 115.847 L 221.789 115.398 L 223.353 114.956 L 224.933 114.520 L 226.532 114.091 L 228.148 113.668 L 229.782 113.252 L 231.435 112.843 L 233.107 112.441 L 234.799 112.045 L 236.510 111.656 L 238.242 111.273 L 239.994 110.897 L 241.767 110.527 L 243.563 110.164 L 245.380 109.808 L 247.221 109.458 L 249.084 109.115 L 250.972 108.778 L 252.885 108.447 L 254.823 108.123 L 256.787 107.806 L 258.777 107.495 L 260.796 107.190 L 262.843 106.892 L 264.919 106.600 L 267.025 106.315 L 269.163 106.036 L 271.333 105.763 L 273.537 105.497 L 275.775 105.237 L 278.049 104.984 L 280.360 104.737 L 282.710 104.496 L 285.100 104.262 L 287.532 104.034 L 290.007 103.812 L 292.528 103.597 L 295.097 103.388 L 297.715 103.185 L 300.386 102.989 L 303.111 102.798 L 305.894 102.615 L 308.738 102.437 L 311.645 102.266 L 314.621 102.101 L 317.668 101.942 L 320.792 101.790 L 323.998 101.643 L 327.290 101.503 L 330.676 101.370 L 334.162 101.242 L 337.756 101.121 L 341.468 101.006 L 345.308 100.897 L 349.289 100.795 L 353.423 100.698 L 357.728 100.608 L 362.224 100.525 L 366.934 100.447 L 371.888 100.375 L 377.122 100.310 L 382.682 100.251 L 388.628 100.199 L 395.041 100.152 L 402.031 100.112 L 409.763 100.078 L 418.490 100.050 L 428.653 100.028 L 441.131 100.012 L 458.291 100.003 L 512.000 100.000 L 565.709 100.003 L 582.869 100.012 L 595.347 100.028 L 605.510 100.050 L 614.237 100.078 L 621.969 100.112 L 628.959 100.152 L 635.372 100.199 L 641.318 100.251 L 646.878 100.310 L 652.112 100.375 L 657.066 100.447 L 661.776 100.525 L 666.272 100.608 L 670.577 100.698 L 674.711 100.795 L 678.692 100.897 L 682.532 101.006 L 686.244 101.121 L 689.838 101.242 L 693.324 101.370 L 696.710 101.503 L 700.002 101.643 L 703.208 101.790 L 706.332 101.942 L 709.379 102.101 L 712.355 102.266 L 715.262 102.437 L 718.106 102.615 L 720.889 102.798 L 723.614 102.989 L 726.285 103.185 L 728.903 103.388 L 731.472 103.597 L 733.993 103.812 L 736.468 104.034 L 738.900 104.262 L 741.290 104.496 L 743.640 104.737 L 745.951 104.984 L 748.225 105.237 L 750.463 105.497 L 752.667 105.763 L 754.837 106.036 L 756.975 106.315 L 759.081 106.600 L 761.157 106.892 L 763.204 107.190 L 765.223 107.495 L 767.213 107.806 L 769.177 108.123 L 771.115 108.447 L 773.028 108.778 L 774.916 109.115 L 776.779 109.458 L 778.620 109.808 L 780.437 110.164 L 782.233 110.527 L 784.006 110.897 L 785.758 111.273 L 787.490 111.656 L 789.201 112.045 L 790.893 112.441 L 792.565 112.843 L 794.218 113.252 L 795.852 113.668 L 797.468 114.091 L 799.067 114.520 L 800.647 114.956 L 802.211 115.398 L 803.758 115.847 L 805.288 116.303 L 806.802 116.766 L 808.300 117.235 L 809.782 117.712 L 811.249 118.195 L 812.700 118.685 L 814.137 119.182 L 815.559 119.685 L 816.966 120.196 L 818.360 120.713 L 819.739 121.238 L 821.104 121.769 L 822.456 122.307 L 823.794 122.853 L 825.120 123.405 L 826.432 123.964 L 827.731 124.531 L 829.018 125.104 L 830.292 125.685 L 831.553 126.273 L 832.803 126.868 L 834.040 127.470 L 835.266 128.079 L 836.479 128.696 L 837.681 129.320 L 838.872 129.951 L 840.051 130.590 L 841.219 131.236 L 842.376 131.889 L 843.522 132.550 L 844.657 133.218 L 845.781 133.894 L 846.895 134.577 L 847.998 135.268 L 849.090 135.966 L 850.172 136.672 L 851.244 137.386 L 852.306 138.107 L 853.358 138.836 L 854.400 139.573 L 855.432 140.318 L 856.454 141.071 L 857.467 141.831 L 858.470 142.600 L 859.463 143.376 L 860.447 144.161 L 861.421 144.953 L 862.387 145.754 L 863.343 146.563 L 864.290 147.380 L 865.227 148.205 L 866.156 149.039 L 867.076 149.880 L 867.987 150.731 L 868.889 151.590 L 869.782 152.457 L 870.667 153.333 L 871.543 154.218 L 872.410 155.111 L 873.269 156.013 L 874.120 156.924 L 874.961 157.844 L 875.795 158.773 L 876.620 159.710 L 877.437 160.657 L 878.246 161.613 L 879.047 162.579 L 879.839 163.553 L 880.624 164.537 L 881.400 165.530 L 882.169 166.533 L 882.929 167.546 L 883.682 168.568 L 884.427 169.600 L 885.164 170.642 L 885.893 171.694 L 886.614 172.756 L 887.328 173.828 L 888.034 174.910 L 888.732 176.002 L 889.423 177.105 L 890.106 178.219 L 890.782 179.343 L 891.450 180.478 L 892.111 181.624 L 892.764 182.781 L 893.410 183.949 L 894.049 185.128 L 894.680 186.319 L 895.304 187.521 L 895.921 188.734 L 896.530 189.960 L 897.132 191.197 L 897.727 192.447 L 898.315 193.708 L 898.896 194.982 L 899.469 196.269 L 900.036 197.568 L 900.595 198.880 L 901.147 200.206 L 901.693 201.544 L 902.231 202.896 L 902.762 204.261 L 903.287 205.640 L 903.804 207.034 L 904.315 208.441 L 904.818 209.863 L 905.315 211.300 L 905.805 212.751 L 906.288 214.218 L 906.765 215.700 L 907.234 217.198 L 907.697 218.712 L 908.153 220.242 L 908.602 221.789 L 909.044 223.353 L 909.480 224.933 L 909.909 226.532 L 910.332 228.148 L 910.748 229.782 L 911.157 231.435 L 911.559 233.107 L 911.955 234.799 L 912.344 236.510 L 912.727 238.242 L 913.103 239.994 L 913.473 241.767 L 913.836 243.563 L 914.192 245.380 L 914.542 247.221 L 914.885 249.084 L 915.222 250.972 L 915.553 252.885 L 915.877 254.823 L 916.194 256.787 L 916.505 258.777 L 916.810 260.796 L 917.108 262.843 L 917.400 264.919 L 917.685 267.025 L 917.964 269.163 L 918.237 271.333 L 918.503 273.537 L 918.763 275.775 L 919.016 278.049 L 919.263 280.360 L 919.504 282.710 L 919.738 285.100 L 919.966 287.532 L 920.188 290.007 L 920.403 292.528 L 920.612 295.097 L 920.815 297.715 L 921.011 300.386 L 921.202 303.111 L 921.385 305.894 L 921.563 308.738 L 921.734 311.645 L 921.899 314.621 L 922.058 317.668 L 922.210 320.792 L 922.357 323.998 L 922.497 327.290 L 922.630 330.676 L 922.758 334.162 L 922.879 337.756 L 922.994 341.468 L 923.103 345.308 L 923.205 349.289 L 923.302 353.423 L 923.392 357.728 L 923.475 362.224 L 923.553 366.934 L 923.625 371.888 L 923.690 377.122 L 923.749 382.682 L 923.801 388.628 L 923.848 395.041 L 923.888 402.031 L 923.922 409.763 L 923.950 418.490 L 923.972 428.653 L 923.988 441.131 L 923.997 458.291 Z" fill="#14120E"/>
  <path d="M 512 354.5 A 157.5 157.5 0 1 0 512 669.5 A 157.5 157.5 0 1 0 512 354.5 Z
           M 512 411   A 101 101 0 1 1 512 613   A 101 101 0 1 1 512 411 Z"
        fill="#FFFFFF" fill-rule="evenodd"/>
</svg>